#N canvas 827 239 527 327 12;
#X obj 128 164 netreceive -u -b;
#X msg 128 119 listen 3333;
#X obj 128 201 oscparse;
#X obj 128 233 list trim;
#X obj 128 278 route test;
#X obj 128 326 print;
#X connect 0 0 2 0;
#X connect 1 0 0 0;
#X connect 2 0 3 0;
#X connect 3 0 4 0;
#X connect 4 0 5 0;
