#N canvas 827 239 527 327 12;
#X obj 128 164 netreceive -u -b;
#X obj 128 201 oscparse;
#X obj 128 233 list trim;
#X msg 128 119 listen 3333;
#X obj 128 278 route touch;
#X obj 299 340 osc~;
#X obj 299 429 dac~;
#X obj 299 265 * 440;
#X obj 414 340 print;
#X connect 0 0 1 0;
#X connect 1 0 2 0;
#X connect 2 0 4 0;
#X connect 3 0 0 0;
#X connect 4 0 7 0;
#X connect 5 0 6 0;
#X connect 7 0 5 0;
#X connect 7 0 8 0;
